<?xml version="1.0" encoding="UTF-8" standalone="no"?>
<!-- Generator: Adobe Illustrator 16.0.0, SVG Export Plug-In . SVG Version: 6.00 Build 0)  -->

<svg
   xmlns:dc="http://purl.org/dc/elements/1.1/"
   xmlns:cc="http://creativecommons.org/ns#"
   xmlns:rdf="http://www.w3.org/1999/02/22-rdf-syntax-ns#"
   xmlns:svg="http://www.w3.org/2000/svg"
   xmlns="http://www.w3.org/2000/svg"
   xmlns:sodipodi="http://sodipodi.sourceforge.net/DTD/sodipodi-0.dtd"
   xmlns:inkscape="http://www.inkscape.org/namespaces/inkscape"
   version="1.1"
   id="Capa_1"
   x="0px"
   y="0px"
   width="512px"
   height="512px"
   viewBox="0 0 910.812 910.812"
   style="enable-background:new 0 0 910.812 910.812;"
   xml:space="preserve"
   sodipodi:docname="cv-icon.svg"
   inkscape:version="0.92.1 r15371"><metadata
     id="metadata3725"><rdf:RDF><cc:Work
         rdf:about=""><dc:format>image/svg+xml</dc:format><dc:type
           rdf:resource="http://purl.org/dc/dcmitype/StillImage" /></cc:Work></rdf:RDF></metadata><defs
     id="defs3723" /><sodipodi:namedview
     pagecolor="#ffffff"
     bordercolor="#666666"
     borderopacity="1"
     objecttolerance="10"
     gridtolerance="10"
     guidetolerance="10"
     inkscape:pageopacity="0"
     inkscape:pageshadow="2"
     inkscape:window-width="1920"
     inkscape:window-height="1001"
     id="namedview3721"
     showgrid="false"
     inkscape:snap-text-baseline="false"
     inkscape:zoom="1.578125"
     inkscape:cx="139.72277"
     inkscape:cy="256"
     inkscape:window-x="-9"
     inkscape:window-y="-9"
     inkscape:window-maximized="1"
     inkscape:current-layer="Capa_1" /><g
     id="g3688"
     transform="matrix(0.80700393,0,0,0.66460432,49.565313,98.0701)"><g
       id="g3686"><g
         id="g3684"><path
           d="m 122.483,50 v 810.812 c 0,27.613 22.386,50 50,50 H 556.138 V 758.703 H 223.57 c -8.284,0 -15,-6.717 -15,-15 0,-8.285 6.716,-15 15,-15 h 333.404 c 4.744,-28.377 29.462,-50.076 59.164,-50.076 H 788.321 V 50 c 0,-27.614 -22.386,-50 -50,-50 H 172.483 c -27.615,0 -50,22.386 -50,50 z m 392.174,44.062 42.478,151.899 c 9.694,34.166 16.621,63.715 26.777,98.342 h 1.848 c 10.156,-34.627 17.082,-64.176 26.316,-98.342 L 654.092,94.062 h 54.941 L 615.308,396.014 H 552.055 L 457.868,94.062 Z m -156.048,-5.54 c 36.475,0 66.947,18.006 85.877,38.321 l -30.011,33.243 c -15.236,-15.236 -32.319,-24.932 -55.404,-24.932 -49.864,0 -84.953,41.553 -84.953,109.423 0,68.794 32.319,110.347 83.106,110.347 26.777,0 46.17,-11.081 63.253,-30.011 l 30.01,32.781 c -24.47,28.164 -56.327,43.862 -94.187,43.862 -77.104,0 -137.125,-55.404 -137.125,-155.593 10e-4,-98.805 61.868,-157.441 139.434,-157.441 z M 223.57,471.627 h 463.664 c 8.284,0 15,6.717 15,15 0,8.283 -6.716,15 -15,15 H 223.57 c -8.284,0 -15,-6.717 -15,-15 0,-8.283 6.715,-15 15,-15 z m 0,133.082 h 463.664 c 8.284,0 15,6.717 15,15 0,8.285 -6.716,15 -15,15 H 223.57 c -8.284,0 -15,-6.715 -15,-15 0,-8.283 6.715,-15 15,-15 z"
           id="path3680"
           inkscape:connector-curvature="0"
           style="fill:#0397d6" /><path
           d="M 783.624,708.627 H 616.139 c -16.569,0 -30,13.432 -30,30 v 167.508 4.678 l 202.19,-202.186 z"
           id="path3682"
           inkscape:connector-curvature="0"
           style="fill:#0397d6" /></g></g></g><g
     id="g3690" /><g
     id="g3692" /><g
     id="g3694" /><g
     id="g3696" /><g
     id="g3698" /><g
     id="g3700" /><g
     id="g3702" /><g
     id="g3704" /><g
     id="g3706" /><g
     id="g3708" /><g
     id="g3710" /><g
     id="g3712" /><g
     id="g3714" /><g
     id="g3716" /><g
     id="g3718" /><flowRoot
     xml:space="preserve"
     id="flowRoot3727"
     style="font-style:normal;font-weight:normal;font-size:40px;line-height:1.25;font-family:sans-serif;letter-spacing:0px;word-spacing:0px;fill:#000000;fill-opacity:1;stroke:none"
     transform="scale(1.7789297)"><flowRegion
       id="flowRegion3729"><rect
         id="rect3731"
         width="240.15842"
         height="43.089108"
         x="128.63367"
         y="253.46535" /></flowRegion><flowPara
       id="flowPara3733">OscaOSSDFASDFASDFASDFASDFASDFASDFASDF</flowPara></flowRoot><text
     xml:space="preserve"
     style="font-style:normal;font-variant:normal;font-weight:500;font-stretch:normal;font-size:71.15718842px;line-height:1.25;font-family:'AR DECODE';-inkscape-font-specification:'AR DECODE, Medium';font-variant-ligatures:normal;font-variant-caps:normal;font-variant-numeric:normal;font-feature-settings:normal;text-align:start;letter-spacing:0px;word-spacing:0px;writing-mode:lr-tb;text-anchor:start;fill:#000000;fill-opacity:1;stroke:none;stroke-width:1.77892971"
     x="187.12225"
     y="480.20532"
     id="text3737"><tspan
       sodipodi:role="line"
       id="tspan3735"
       x="187.12225"
       y="480.20532"
       style="font-style:normal;font-variant:normal;font-weight:500;font-stretch:normal;font-size:71.15718842px;font-family:'AR DECODE';-inkscape-font-specification:'AR DECODE, Medium';font-variant-ligatures:normal;font-variant-caps:normal;font-variant-numeric:normal;font-feature-settings:normal;text-align:start;writing-mode:lr-tb;text-anchor:start;stroke-width:1.77892971">OscarRodriguez B </tspan></text>
<rect
     id="rect3739"
     width="486.96878"
     height="72.143539"
     x="209.66711"
     y="814.9964"
     style="fill:#ffffff;stroke-width:1.77892971" /></svg>